<svg width="140" height="40" viewBox="0 0 140 40" fill="none" xmlns="http://www.w3.org/2000/svg">
<g clip-path="url(#clip0_202_397)">
<path d="M7.7745 12.867C8.47523 12.4607 8.9215 11.8159 9.41083 11.1947C7.80974 10.5929 7.71578 9.96773 8.90193 8.74472C10.1624 7.44355 11.423 6.11113 11.6187 4.00114C10.4012 4.94673 9.54393 6.0408 8.76491 7.2052C8.61224 7.43183 8.4948 7.68191 8.31864 7.889C8.00547 8.25629 7.614 8.4712 7.11293 8.28365C6.63142 8.10391 6.39654 7.7327 6.39263 7.23646C6.38088 6.29869 6.39263 5.36482 6.39263 4.43095C5.95027 4.98971 5.80543 5.74775 5.53532 6.44326C5.35916 6.89261 5.25738 7.37322 5.0773 7.81867C4.85808 8.3657 4.43921 8.72909 3.83244 8.71737C3.25307 8.70564 2.90858 8.3149 2.71676 7.79522C2.58366 7.43574 2.46231 7.07235 2.30572 6.63472C1.63632 8.81114 2.16088 10.929 3.67194 12.2809C4.03992 12.6091 4.14953 12.9921 3.94597 13.418C3.7424 13.84 3.34311 13.9923 2.88118 13.9337C2.43491 13.879 2.12173 13.5899 1.82031 13.2851C0.0195618 11.4682 -0.109622 9.19407 0.050879 6.85354C0.129172 5.70867 0.344479 4.57553 0.802494 3.5049C1.11567 2.77813 1.50322 2.10215 2.41533 2.14122C3.32353 2.18029 3.67585 2.86409 3.89116 3.63775C3.92248 3.75107 3.9812 3.86047 4.07906 4.09492C4.40007 3.40331 4.66235 2.79376 4.96769 2.20374C5.24563 1.66843 5.55098 1.14483 5.88764 0.644688C6.23996 0.125005 6.75669 -0.113346 7.38695 0.0429496C7.9859 0.195338 8.24426 0.652503 8.38128 1.21908C8.57701 2.00837 8.56135 2.82111 8.64747 3.73934C9.39909 3.15324 9.92757 2.49289 10.64 2.05135C12.2137 1.0745 13.5643 1.69187 13.7248 3.54398C13.8579 5.07177 13.3451 6.46671 12.5073 7.7327C12.2881 8.06874 12.1511 8.24457 12.5817 8.5767C13.1689 9.02605 13.1337 9.72547 12.8127 10.3155C11.9554 11.9058 10.6674 13.164 9.34428 14.3479C8.6553 14.9653 8.01721 14.3636 7.52005 13.7618C7.25777 14.3636 7.63749 14.5706 8.02896 14.7738C8.98413 15.274 10.0489 15.4068 11.0785 15.6335C13.7952 16.2313 15.3494 17.7825 15.9287 20.5998C16.3241 20.2833 16.6843 19.9785 17.0562 19.6971C17.6982 19.2165 18.3871 18.8688 19.221 18.8571C20.6968 18.8375 21.4523 19.8417 21.0139 21.2601C20.9278 21.5414 20.8182 21.815 20.7007 22.1471C21.6441 22.1744 22.521 22.1783 23.3392 22.5456C24.2043 22.9364 24.9559 23.46 24.9912 24.5111C25.0264 25.4918 24.3413 26.0115 23.5623 26.4296C22.3057 27.1056 20.9121 27.3674 19.5341 27.719C19.7025 27.9378 19.9178 27.9613 20.1292 27.9886C22.2744 28.2543 23.6719 29.7118 25.0969 31.1067C25.3983 31.3998 25.5588 31.8101 25.6762 32.2243C26.0012 33.373 25.4649 34.2092 24.2748 34.3616C23.5506 34.4554 22.8342 34.3421 22.0239 34.217C22.1022 34.5413 22.1726 34.8149 22.2353 35.0884C22.6189 36.7451 21.468 37.8548 19.8317 37.3664C18.348 36.9248 17.2519 35.9441 16.3515 34.7211C16.1714 34.4788 15.9953 34.2366 15.7213 33.8654C15.6351 34.6468 15.5608 35.3033 15.4903 35.9636C15.3807 37.003 15.1106 37.9916 14.5038 38.8512C13.3412 40.4845 11.2077 40.3204 10.2838 38.5386C9.85319 37.7141 9.73575 36.8115 9.73966 35.8972C9.73966 35.4479 9.65745 35.3111 9.18378 35.4244C8.80797 35.5143 8.39693 35.5299 8.0133 35.483C6.62359 35.3111 5.88372 34.0724 6.34565 32.7557C6.63925 31.9273 7.20296 31.306 7.83322 30.7277C8.11116 30.4698 8.39693 30.2198 8.81972 29.8446C7.50831 29.8212 6.44352 29.5555 5.48051 28.9499C4.44704 28.3012 3.69934 27.4494 3.80895 26.1522C3.91465 24.9252 4.88548 24.4212 5.85632 23.9445C6.30651 23.7218 7.05421 23.8429 7.1873 23.3896C7.28126 23.0731 6.76452 22.5808 6.53747 22.1588C5.98159 21.139 5.76628 20.1074 6.55313 19.1032C7.33215 18.1107 8.42042 18.0248 9.52827 18.2553C11.3094 18.6226 12.4799 19.8378 13.4664 21.264C13.6191 21.4867 13.7483 21.7251 13.8931 21.9517C13.9009 21.9673 13.9518 21.9517 13.9832 21.9517C14.128 19.83 13.0554 18.2983 11.0628 17.8021C10.092 17.5598 9.11332 17.3605 8.15031 17.0948C7.32432 16.8682 6.56879 16.4892 5.96593 15.8562C5.1556 15.0083 5.01075 13.8595 5.60187 12.8514C6.2517 11.7417 7.08944 11.73 7.78233 12.8397L7.7745 12.867Z" fill="white"/>
<path d="M10.143 27.7074C8.69456 27.723 7.56714 27.8129 6.56498 27.1486C6.31053 26.9806 5.99344 26.8126 6.0091 26.4883C6.02476 26.1405 6.40057 26.0585 6.67068 25.9491C7.32051 25.6873 7.99775 25.5349 8.7063 25.613C9.32091 25.6794 9.85721 25.5388 10.1939 24.9761C10.5579 24.3705 10.2174 23.882 9.89636 23.3975C9.41094 22.6707 8.90987 21.9518 8.44011 21.2172C8.29918 20.9984 8.08779 20.7131 8.28352 20.4709C8.46359 20.2482 8.80026 20.3185 9.06254 20.3732C10.2017 20.6076 10.9807 21.3696 11.6306 22.2566C12.5153 23.46 13.0711 24.8315 13.4509 26.2695C13.6231 26.9181 13.5096 27.3479 12.711 27.4729C11.7519 27.6253 10.7928 27.7152 10.1508 27.7035L10.143 27.7074Z" fill="black"/>
<path d="M8.48316 33.3965C9.16431 32.0015 11.5875 30.3018 13.721 29.6766C13.9167 30.4229 13.7131 31.1536 13.674 31.8843C13.5879 33.3926 13.5487 34.9047 13.2551 36.3895C13.1494 36.9249 13.0437 37.7923 12.4565 37.7415C11.8693 37.6907 11.9398 36.8154 11.8772 36.2645C11.795 35.5377 11.9163 34.8227 12.159 34.1272C12.3508 33.584 12.3743 33.037 11.8654 32.6384C11.3957 32.2751 10.9103 32.4001 10.4209 32.658C9.84155 32.9628 9.26609 33.2949 8.47925 33.3965H8.48316Z" fill="black"/>
<path d="M23.0965 32.1892C22.2353 32.1618 21.5502 31.8336 20.8612 31.5288C20.5011 31.3686 20.1487 31.1928 19.7769 31.0677C19.2327 30.888 18.7473 31.0287 18.395 31.478C18.0153 31.9625 18.1601 32.4432 18.4889 32.8925C18.9822 33.5724 19.6124 34.1585 19.9217 34.9751C18.3049 34.5023 16.4572 31.7164 16.0266 28.9929C18.438 30.0167 21.2488 29.8252 23.0965 32.1853V32.1892Z" fill="black"/>
<path d="M18.6063 21.4478C18.2657 21.944 17.9251 22.4363 17.5845 22.9326C17.2635 23.3975 17.1774 23.8938 17.5297 24.3627C17.886 24.8355 18.3792 25.0152 18.9743 24.8355C19.812 24.5815 20.6341 24.2494 21.5384 24.3392C21.8202 24.3666 22.0982 24.4135 22.5797 24.4799C21.7967 24.9918 21.1234 25.1363 20.4657 25.3004C19.033 25.6599 17.5885 25.9881 16.1518 26.3437C15.729 26.4492 15.5528 26.3945 15.6194 25.8866C15.8817 23.9211 16.8721 22.4324 18.6063 21.4438V21.4478Z" fill="black"/>
<path d="M32.6365 17.5834L32.5896 25.8944L38.7082 17.5834H42.8734L35.7291 26.922L43.0535 37.9917H38.7512L33.0398 28.8406L32.5857 29.1102L32.6326 37.9878H29.1956V17.5834H32.6326H32.6365Z" fill="white"/>
<path d="M44.7173 37.9917V17.5834H48.1309V34.2328H53.2278V37.9956H44.7173V37.9917Z" fill="white"/>
<path d="M65.3083 17.5834V21.1039H58.7551V25.3005H65.0577V28.7663H58.7551V34.4789H65.3552V37.9995H55.3455V17.5834H65.3122H65.3083Z" fill="white"/>
<path d="M78.5478 17.5834V21.1039H71.9946V25.3005H78.2972V28.7663H71.9946V34.4789H78.5948V37.9995H68.585V17.5834H78.5517H78.5478Z" fill="white"/>
<path d="M80.1409 17.5834H83.7815L87.7392 30.8216L91.6539 17.5834H93.1767L96.9543 30.8216L101.139 17.5834H104.803L97.9095 37.9956H95.9992L92.382 25.3278L88.6748 37.9956H86.788L80.1448 17.5834H80.1409Z" fill="white"/>
<path d="M106.577 37.9917V17.5834H109.99V37.9956H106.577V37.9917Z" fill="white"/>
<path d="M112.311 33.9866L114.656 31.904C115.095 32.916 115.619 33.6584 116.226 34.139C116.833 34.6157 117.506 34.858 118.25 34.858C118.994 34.858 119.538 34.6274 119.933 34.1663C120.329 33.7053 120.524 33.0957 120.524 32.3377C120.524 31.9587 120.477 31.6187 120.387 31.3218C120.297 31.0248 120.137 30.7396 119.91 30.47C119.683 30.2003 119.377 29.9268 119.001 29.6572C118.622 29.3876 118.144 29.1063 117.569 28.8171C116.872 28.4576 116.246 28.0903 115.694 27.7191C115.142 27.3479 114.672 26.9338 114.296 26.4727C113.916 26.0116 113.627 25.488 113.419 24.9019C113.216 24.3158 113.11 23.6359 113.11 22.8583C113.11 22.0808 113.243 21.2993 113.509 20.6116C113.775 19.9239 114.147 19.33 114.625 18.8259C115.102 18.3219 115.67 17.9233 116.332 17.6342C116.993 17.345 117.71 17.2004 118.481 17.2004C119.679 17.2004 120.708 17.4857 121.566 18.0523C122.423 18.6188 123.124 19.3925 123.672 20.3654L121.487 22.6942C121.139 22.0612 120.732 21.5767 120.27 21.2329C119.808 20.889 119.256 20.7171 118.622 20.7171C117.988 20.7171 117.522 20.9125 117.142 21.2993C116.762 21.6861 116.574 22.1628 116.574 22.7216C116.574 22.9912 116.621 23.2452 116.723 23.4796C116.821 23.7141 116.989 23.9485 117.224 24.183C117.459 24.4174 117.772 24.6518 118.168 24.8863C118.563 25.1207 119.048 25.3903 119.624 25.699C120.383 26.078 121.037 26.4805 121.593 26.9025C122.145 27.3284 122.603 27.7973 122.959 28.3092C123.315 28.8249 123.582 29.4071 123.754 30.0558C123.926 30.7044 124.016 31.4468 124.016 32.2752C124.016 33.1973 123.875 34.0296 123.593 34.7798C123.311 35.53 122.924 36.1708 122.423 36.7022C121.922 37.2337 121.331 37.6439 120.65 37.9331C119.968 38.2222 119.225 38.3668 118.418 38.3668C117.674 38.3668 116.981 38.2574 116.336 38.0425C115.69 37.8276 115.114 37.5228 114.605 37.136C114.096 36.7491 113.65 36.2881 113.263 35.7567C112.875 35.2253 112.562 34.6352 112.319 33.9827L112.311 33.9866Z" fill="white"/>
<path d="M130.057 17.5834V25.2966H136.61V17.5834H140V37.9956H136.61V29.0359H130.057V37.9956H126.643V17.5834H130.057Z" fill="white"/>
</g>
<defs>
<clipPath id="clip0_202_397">
<rect width="140" height="40" fill="white"/>
</clipPath>
</defs>
</svg>
