<svg width="41" height="41" viewBox="0 0 41 41" fill="none" xmlns="http://www.w3.org/2000/svg">
<g clip-path="url(#clip0_64_1958)">
<path d="M20.5366 41L20.3043 40.9628C10.4916 38.6471 3.64136 29.9896 3.64136 19.9078V5.82761L4.32485 5.79709C10.0232 5.54239 15.4717 3.64261 20.0807 0.30384L20.5004 0L20.9201 0.30384C25.5305 3.64266 30.9785 5.54239 36.675 5.79715L37.3585 5.82761V19.9083C37.3585 29.9901 30.5077 38.6476 20.6988 40.9624L20.5366 41ZM5.0723 7.18847V19.9079C5.0723 29.2784 11.4089 37.3317 20.4995 39.5382C29.5911 37.3307 35.9276 29.278 35.9276 19.9079V7.18847C30.3704 6.81643 25.0608 4.94953 20.5004 1.7615C15.941 4.94904 10.6318 6.81643 5.0723 7.18847Z" fill="#C9A788" stroke="#C9A788" stroke-width="0.5"/>
<path d="M20.5238 35.5317L20.3621 35.5045C13.1808 33.8107 8.16309 27.4704 8.16309 20.0864V9.78897L8.6186 9.76842C12.8154 9.58006 16.8273 8.18157 20.22 5.72368L20.5 5.521L20.78 5.72368C24.1745 8.18201 28.1859 9.58044 32.3809 9.76842L32.8364 9.78897V20.0863C32.8364 27.4699 27.8186 33.8102 20.6345 35.5054L20.5238 35.5317ZM9.11708 10.6966V20.0868C9.11708 26.9972 13.7933 32.935 20.4995 34.5571C27.2091 32.9307 31.8825 26.9946 31.8825 20.0868V10.6966C27.781 10.4295 23.8617 9.05254 20.5 6.69581C17.1407 9.05254 13.2205 10.4295 9.11708 10.6966Z" fill="#C9A788"/>
<path d="M23.692 19.1256V17.3489C23.692 15.6246 22.2977 14.219 20.5859 14.219H20.4142C18.7023 14.219 17.311 15.6246 17.311 17.3489V19.1256H16.1763V26.9384H24.8228V19.1256H23.692ZM18.5101 17.3484C18.5101 16.2919 19.3649 15.4319 20.4142 15.4319H20.5859C21.6377 15.4319 22.489 16.2919 22.489 17.3484V19.1252H18.5101V17.3484Z" fill="#C9A788"/>
</g>
<defs>
<clipPath id="clip0_64_1958">
<rect width="41" height="41" fill="white"/>
</clipPath>
</defs>
</svg>
