<svg width="41" height="42" viewBox="0 0 41 42" fill="none" xmlns="http://www.w3.org/2000/svg">
<style>
    #path-dialog {
    fill: none !important;
    }
</style>
    <path id="path-dialog" d="M35.875 20.4835C35.8809 22.7383 35.3541 24.9626 34.3375 26.9752C33.1322 29.3869 31.2792 31.4155 28.9861 32.8336C26.693 34.2517 24.0503 35.0033 21.3542 35.0044C19.0994 35.0102 16.8751 34.4834 14.8625 33.4669L5.125 36.7127L8.37083 26.9752C7.35426 24.9626 6.82745 22.7383 6.83333 20.4835C6.83438 17.7874 7.58605 15.1447 9.00415 12.8516C10.4222 10.5585 12.4508 8.70554 14.8625 7.5002C16.8751 6.48362 19.0994 5.95682 21.3542 5.9627H22.2083C25.7691 6.15914 29.1323 7.66208 31.6539 10.1837C34.1756 12.7054 35.6786 16.0686 35.875 19.6294V20.4835Z" stroke="#C9A788" stroke-width="2.5" stroke-linecap="round" stroke-linejoin="round"/>
</svg>
