<svg width="41" height="41" viewBox="0 0 41 41" fill="none" xmlns="http://www.w3.org/2000/svg">
<path d="M29.7537 11.2462C29.1017 10.5941 28.2348 10.2351 27.313 10.2351C26.3912 10.2351 25.5242 10.5941 24.8722 11.2462C24.2203 11.8981 23.8613 12.7649 23.8613 13.6867C23.8613 14.6087 24.2203 15.4756 24.8722 16.1275C25.5242 16.7795 26.3909 17.1383 27.3127 17.1385C27.313 17.1385 27.313 17.1385 27.313 17.1385C28.2348 17.1385 29.1017 16.7795 29.7537 16.1275C30.4056 15.4755 30.7647 14.6087 30.7647 13.6867C30.7646 12.7649 30.4055 11.8981 29.7537 11.2462ZM28.3807 14.7545C28.0954 15.0399 27.7165 15.1971 27.3129 15.1971C26.9095 15.197 26.5303 15.0399 26.2452 14.7545C25.9599 14.4695 25.8027 14.0903 25.8027 13.6868C25.8027 13.2836 25.9598 12.9043 26.2452 12.6191C26.5303 12.3338 26.9097 12.1768 27.3129 12.1768C27.7161 12.1768 28.0954 12.3337 28.3807 12.6191C28.9696 13.2078 28.9696 14.1658 28.3807 14.7545Z" fill="#C9A788"/>
<path d="M3.19189 32.1449C2.94348 32.1449 2.69513 32.0502 2.50555 31.8607C2.1264 31.4816 2.1264 30.8667 2.50555 30.4877L8.11896 24.8742C8.49811 24.4951 9.1128 24.4951 9.49195 24.8742C9.8711 25.2533 9.8711 25.8682 9.49195 26.2473L3.87833 31.8607C3.68881 32.0502 3.4404 32.1449 3.19189 32.1449Z" fill="#C9A788"/>
<path d="M4.44717 37.5238C4.19861 37.5238 3.95025 37.429 3.76068 37.2394C3.38153 36.8603 3.38153 36.2457 3.76068 35.8666L9.61169 30.0156C9.99083 29.6364 10.6055 29.6364 10.9845 30.0156C11.3637 30.3947 11.3637 31.0095 10.9845 31.3886L5.13362 37.2394C4.94409 37.429 4.69553 37.5238 4.44717 37.5238Z" fill="#C9A788"/>
<path d="M9.82584 38.7788C9.57732 38.7788 9.32891 38.6841 9.13934 38.4945C8.76019 38.1154 8.76019 37.5006 9.13934 37.1216L14.7529 31.5079C15.132 31.1289 15.7467 31.1288 16.1257 31.5079C16.5049 31.887 16.5049 32.5019 16.1257 32.881L10.5123 38.4945C10.3228 38.6841 10.0743 38.7788 9.82584 38.7788Z" fill="#C9A788"/>
<path d="M38.4945 2.50573C38.274 2.28535 37.9611 2.18398 37.6539 2.23354C37.541 2.25184 34.8502 2.69377 31.1835 4.09474C29.0324 4.91648 26.9887 5.90063 25.1089 7.01988C22.8007 8.3941 20.7344 9.97808 18.9641 11.7283L11.6325 13.1556C11.4433 13.1924 11.2694 13.2849 11.1327 13.4209L4.49039 20.0419C4.18766 20.3436 4.11796 20.8075 4.31819 21.1848C4.48885 21.5062 4.82136 21.7003 5.17535 21.7003C5.23695 21.7003 5.29912 21.6945 5.36128 21.6826L12.8533 20.2238C12.3656 21.1808 11.9093 22.1742 11.4858 23.2037C11.3369 23.5662 11.4202 23.9824 11.6972 24.2596L13.5325 26.0949L11.8274 27.8C11.4482 28.1792 11.4482 28.7938 11.8274 29.1728C12.017 29.3624 12.2653 29.4572 12.514 29.4572C12.7624 29.4572 13.0108 29.3624 13.2003 29.173L14.9054 27.4679L16.7407 29.3033C16.9265 29.4888 17.1748 29.5876 17.4275 29.5876C17.5517 29.5876 17.6771 29.5637 17.7964 29.5145C18.8261 29.0911 19.8195 28.6348 20.7762 28.1473L19.3178 35.6393C19.2362 36.0587 19.4383 36.482 19.8154 36.6824C19.9592 36.7586 20.1153 36.7958 20.2705 36.7958C20.5225 36.7958 20.7716 36.6975 20.9581 36.5102L27.579 29.868C27.7151 29.7315 27.8075 29.5573 27.8445 29.3681L29.2716 22.0365C31.0216 20.266 32.6059 18.2 33.9802 15.8916C35.0992 14.0116 36.0835 11.968 36.9054 9.817C38.3061 6.15002 38.7483 3.45954 38.7664 3.34669C38.816 3.03878 38.7146 2.72595 38.4945 2.50573ZM8.11761 19.1676L12.2939 15.0049L16.7872 14.1301C15.8127 15.3289 14.9086 16.6226 14.0788 18.0071L8.11761 19.1676ZM25.9949 28.7063L21.8323 32.8826L22.9928 26.9214C24.3776 26.0915 25.671 25.1876 26.8697 24.2129L25.9949 28.7063ZM35.0734 9.17054C33.8477 12.3671 31.5879 16.976 27.7837 20.7803C26.0325 22.5314 23.9933 24.0879 21.6906 25.4357C21.6494 25.4563 21.6094 25.4795 21.5716 25.5057C20.3391 26.2203 19.0313 26.8755 17.6522 27.4687L16.2784 26.0947L19.0515 23.3218C19.4305 22.9427 19.4305 22.328 19.0515 21.9488C18.6724 21.5697 18.0577 21.5698 17.6786 21.9488L14.9055 24.7217L13.5317 23.3478C14.125 21.9685 14.7802 20.6606 15.4949 19.4278C15.521 19.3902 15.5437 19.3509 15.5641 19.3101C16.9119 17.0071 18.4686 14.9676 20.2201 13.2161C24.0242 9.41203 28.6331 7.15221 31.8297 5.92651C33.7719 5.18149 35.4439 4.71696 36.5493 4.45067C36.2829 5.55618 35.8183 7.22826 35.0734 9.17054Z" fill="#C9A788"/>
</svg>
