<svg width="32" height="32" viewBox="0 0 32 32" fill="none" xmlns="http://www.w3.org/2000/svg">
<path d="M29.9248 28.9374L28.5691 2.75849C28.4899 1.21327 27.2123 0 25.6618 0H6.33518C4.78674 0 3.5103 1.21327 3.43105 2.75849L2.0743 28.9374C2.03253 29.7341 2.32059 30.5147 2.86993 31.093C3.41927 31.6713 4.18279 32 4.98056 32H27.0185C27.8174 32 28.5798 31.6713 29.1281 31.093C29.6774 30.5147 29.9665 29.7352 29.9248 28.9374ZM24.6819 6.6842C23.6871 10.5703 20.1865 13.3984 16.0081 13.3984C11.834 13.3984 8.33444 10.5756 7.33749 6.69277C6.55363 6.38651 5.99679 5.62407 5.99679 4.73098C5.99679 3.56805 6.93914 2.62464 8.10314 2.62464C9.26608 2.62464 10.2084 3.56805 10.2084 4.73098C10.2084 5.39705 9.89895 5.9903 9.416 6.3758C10.2502 9.24673 12.8834 11.3102 16.0092 11.3102C19.1318 11.3102 21.7607 9.25208 22.5981 6.38651C22.1066 6.00208 21.7907 5.4024 21.7907 4.72991C21.7907 3.56698 22.7341 2.62357 23.897 2.62357C25.0589 2.62357 26.0012 3.56698 26.0012 4.72991C26.0012 5.6155 25.4551 6.37259 24.6819 6.6842Z" fill="#979797"/>
</svg>
