<svg width="18" height="18" viewBox="0 0 18 18" fill="none" xmlns="http://www.w3.org/2000/svg">
<g clip-path="url(#clip0_210_126)">
<path fill-rule="evenodd" clip-rule="evenodd" d="M10.1319 5.64131H4.19975C3.73569 5.64131 3.35909 6.0179 3.35909 6.48197V13.7843C3.35909 14.2484 3.73569 14.625 4.19975 14.625H11.519C11.9831 14.625 12.3597 14.2484 12.3597 13.7843V7.89131H13.4844V14.0642C13.4844 14.9946 12.7289 15.75 11.7983 15.7503H3.92047C2.98981 15.7503 2.23438 14.9946 2.23438 14.0642V6.20212C2.23438 5.27147 2.98981 4.51603 3.92047 4.51603H10.1319V5.64131Z" fill="#968B88"/>
<path fill-rule="evenodd" clip-rule="evenodd" d="M15.7281 7.12125H14.6016V4.17347L6.75646 12.0184L5.95996 11.2219L13.8054 3.37641H10.8568V2.25H15.7275L15.7281 2.25028V7.12125Z" fill="#968B88"/>
</g>
<defs>
<clipPath id="clip0_210_126">
<rect width="18" height="18" fill="white"/>
</clipPath>
</defs>
</svg>
