<svg width="32" height="32" viewBox="0 0 32 32" fill="none" xmlns="http://www.w3.org/2000/svg">
<path fill-rule="evenodd" clip-rule="evenodd" d="M29.4146 5.41422C30.1955 4.63316 30.1955 3.36684 29.4146 2.58579C28.6335 1.80474 27.3671 1.80474 26.5861 2.58579L15.0333 14.1385C13.5811 13.207 11.8538 12.6667 10.0003 12.6667C4.84567 12.6667 0.666992 16.8453 0.666992 22C0.666992 27.1547 4.84567 31.3333 10.0003 31.3333C15.155 31.3333 19.3337 27.1547 19.3337 22C19.3337 20.1465 18.7934 18.4192 17.8618 16.9671L21.6175 13.2112L23.3125 14.906C24.3539 15.9475 26.0423 15.9475 27.0837 14.906L30.3855 11.6042C31.427 10.5628 31.427 8.87434 30.3855 7.83294L28.6907 6.13806L29.4146 5.41422ZM4.66699 22C4.66699 19.0545 7.05481 16.6667 10.0003 16.6667C12.9458 16.6667 15.3337 19.0545 15.3337 22C15.3337 24.9455 12.9458 27.3333 10.0003 27.3333C7.05481 27.3333 4.66699 24.9455 4.66699 22Z" fill="#979797"/>
</svg>
