<svg width="236" height="68" viewBox="0 0 236 68" fill="none" xmlns="http://www.w3.org/2000/svg">
<g clip-path="url(#clip0_210_467)">
<path d="M13.1057 21.8741C14.2869 21.1833 15.0392 20.0872 15.8641 19.0311C13.1651 18.0081 13.0067 16.9453 15.0062 14.8662C17.1311 12.6542 19.2559 10.3891 19.5859 6.80208C17.5336 8.40959 16.0884 10.2695 14.7752 12.249C14.5179 12.6343 14.3199 13.0594 14.0229 13.4114C13.495 14.0358 12.8351 14.4012 11.9904 14.0823C11.1788 13.7768 10.7828 13.1457 10.7762 12.3021C10.7564 10.7079 10.7762 9.12034 10.7762 7.53277C10.0305 8.48266 9.78637 9.77131 9.33104 10.9537C9.03409 11.7176 8.86251 12.5346 8.55896 13.2919C8.18941 14.2218 7.48332 14.8396 6.46048 14.8197C5.48383 14.7997 4.90311 14.1355 4.57976 13.252C4.3554 12.6409 4.15083 12.0231 3.88687 11.2792C2.75844 14.9791 3.6427 18.5794 6.18992 20.8777C6.81022 21.4357 6.995 22.0866 6.65185 22.8107C6.3087 23.5281 5.6356 23.7871 4.85692 23.6875C4.10463 23.5945 3.57671 23.103 3.06859 22.5848C0.0330523 19.496 -0.184715 15.6301 0.0858442 11.6512C0.217824 9.70489 0.580769 7.77854 1.35285 5.95848C1.88077 4.72296 2.53407 3.5738 4.07164 3.64022C5.60261 3.70665 6.19652 4.8691 6.55946 6.18433C6.61225 6.37696 6.71124 6.56295 6.87621 6.96151C7.41733 5.78577 7.85946 4.74953 8.37419 3.7465C8.84272 2.83647 9.35744 1.94637 9.92495 1.09612C10.5189 0.212655 11.3899 -0.192542 12.4524 0.0731608C13.462 0.332221 13.8975 1.1094 14.1285 2.07257C14.4585 3.41437 14.4321 4.79603 14.5772 6.35703C15.8443 5.36065 16.7351 4.23805 17.9361 3.48744C20.5889 1.8268 22.8656 2.87633 23.1361 6.0249C23.3605 8.62215 22.496 10.9935 21.0839 13.1457C20.7143 13.717 20.4834 14.0159 21.2092 14.5805C22.1991 15.3444 22.1397 16.5335 21.5986 17.5365C20.1534 20.24 17.9823 22.3789 15.7519 24.3916C14.5904 25.4411 13.5148 24.4182 12.6767 23.3952C12.2346 24.4182 12.8747 24.7702 13.5346 25.1157C15.1448 25.9659 16.9397 26.1917 18.6752 26.577C23.2549 27.5933 25.8747 30.2304 26.8514 35.0197C27.5179 34.4817 28.125 33.9636 28.7519 33.4853C29.8341 32.6683 30.9956 32.0771 32.4011 32.0571C34.889 32.0239 36.1626 33.7311 35.4235 36.1423C35.2783 36.6206 35.0935 37.0856 34.8956 37.6502C36.4859 37.6967 37.9641 37.7033 39.3433 38.3277C40.8017 38.992 42.0687 39.8821 42.1281 41.6689C42.1875 43.3362 41.0326 44.2197 39.7194 44.9304C37.6012 46.0796 35.2519 46.5247 32.9291 47.1225C33.2128 47.4945 33.5758 47.5343 33.9321 47.5808C37.5484 48.0325 39.9042 50.5102 42.3062 52.8816C42.8144 53.3798 43.0849 54.0773 43.2829 54.7814C43.8306 56.7343 42.9265 58.1558 40.9204 58.4149C39.6996 58.5743 38.492 58.3816 37.126 58.1691C37.258 58.7204 37.3768 59.1854 37.4824 59.6504C38.1291 62.4668 36.189 64.3533 33.4306 63.523C30.9296 62.7724 29.0818 61.1051 27.5641 59.026C27.2605 58.6141 26.9636 58.2023 26.5016 57.5712C26.3565 58.8998 26.2311 60.0157 26.1123 61.1383C25.9275 62.9052 25.4722 64.5858 24.4493 66.0472C22.4894 68.8238 18.893 68.5448 17.3356 65.5158C16.6097 64.1142 16.4118 62.5798 16.4184 61.0254C16.4184 60.2615 16.2798 60.029 15.4813 60.2216C14.8478 60.3744 14.1549 60.401 13.5082 60.3213C11.1656 60.029 9.91835 57.9233 10.697 55.6848C11.192 54.2765 12.1422 53.2204 13.2047 52.2373C13.6732 51.7989 14.1549 51.3737 14.8676 50.736C12.6569 50.6962 10.862 50.2445 9.23866 49.2149C7.49652 48.1122 6.23611 46.6641 6.42088 44.4588C6.59906 42.373 8.23561 41.5162 9.87216 40.7058C10.631 40.3271 11.8915 40.5331 12.1158 39.7625C12.2742 39.2245 11.4031 38.3875 11.0204 37.6701C10.0833 35.9364 9.72038 34.1828 11.0468 32.4756C12.36 30.7884 14.1945 30.6423 16.062 31.0342C19.0646 31.6586 21.0377 33.7244 22.7006 36.149C22.958 36.5276 23.1757 36.9328 23.4199 37.3181C23.4331 37.3446 23.5189 37.3181 23.5717 37.3181C23.8158 33.7111 22.0077 31.1073 18.6488 30.2636C17.0123 29.8518 15.3625 29.513 13.7392 29.0613C12.3468 28.6761 11.0732 28.0317 10.0569 26.9556C8.69094 25.5142 8.44678 23.5613 9.44322 21.8475C10.5387 19.961 11.9508 19.9411 13.1189 21.8276L13.1057 21.8741Z" fill="white"/>
<path d="M17.0981 47.1027C14.6565 47.1292 12.756 47.282 11.0667 46.1528C10.6377 45.8671 10.1032 45.5815 10.1296 45.0302C10.156 44.439 10.7895 44.2995 11.2448 44.1135C12.3403 43.6684 13.4819 43.4094 14.6763 43.5422C15.7124 43.6552 16.6164 43.416 17.1839 42.4595C17.7976 41.4299 17.2235 40.5996 16.6824 39.7759C15.8641 38.5404 15.0195 37.3181 14.2276 36.0693C13.99 35.6974 13.6337 35.2125 13.9636 34.8006C14.2672 34.422 14.8347 34.5416 15.2768 34.6345C17.1971 35.0331 18.5103 36.3284 19.6058 37.8363C21.0971 39.8822 22.0342 42.2137 22.6743 44.6582C22.9647 45.7609 22.7733 46.4915 21.4271 46.7041C19.8103 46.9632 18.1936 47.1159 17.1113 47.096L17.0981 47.1027Z" fill="#201E1D"/>
<path d="M14.3001 56.7742C15.4483 54.4028 19.5331 51.5133 23.1295 50.4504C23.4595 51.7192 23.1163 52.9613 23.0503 54.2035C22.9052 56.7675 22.8392 59.3382 22.3442 61.8624C22.1661 62.7724 21.9879 64.2471 20.998 64.1607C20.0082 64.0744 20.127 62.5864 20.0214 61.6498C19.8828 60.4143 20.0874 59.1987 20.4965 58.0163C20.8199 57.093 20.8595 56.1631 20.0016 55.4855C19.2097 54.8678 18.3914 55.0803 17.5666 55.5187C16.5899 56.0368 15.6199 56.6015 14.2935 56.7742H14.3001Z" fill="#201E1D"/>
<path d="M38.9342 54.7215C37.4824 54.675 36.3275 54.117 35.1661 53.5989C34.559 53.3265 33.9651 53.0276 33.3382 52.8151C32.4209 52.5095 31.6027 52.7486 31.0088 53.5125C30.3687 54.3362 30.6128 55.1532 31.1671 55.9171C31.9986 57.0729 33.061 58.0693 33.5824 59.4576C30.857 58.6539 27.7422 53.9177 27.0164 49.2878C31.0813 51.0282 35.8194 50.7027 38.9342 54.7148V54.7215Z" fill="#201E1D"/>
<path d="M31.3652 36.4612C30.7911 37.3048 30.217 38.1418 29.6429 38.9854C29.1018 39.7759 28.9566 40.6195 29.5505 41.4166C30.151 42.2203 30.9825 42.5259 31.9855 42.2203C33.3977 41.7886 34.7835 41.224 36.3079 41.3767C36.783 41.4232 37.2515 41.5029 38.0632 41.6159C36.7434 42.486 35.6084 42.7318 34.4997 43.0108C32.0845 43.6219 29.6495 44.1799 27.2276 44.7844C26.515 44.9637 26.218 44.8707 26.3302 44.0072C26.7723 40.666 28.4419 38.1352 31.3652 36.4546V36.4612Z" fill="#201E1D"/>
<path d="M55.0159 26.5505L54.9367 42.0144L65.2509 26.5505H72.2722L60.2291 43.9275L72.5758 64.5261H65.3235L55.6955 47.5012L54.9301 48.006L55.0093 64.5261H49.2153V26.5505H55.0093H55.0159Z" fill="white"/>
<path d="M75.3799 64.5261V26.5505H81.1342V57.5248H89.7261V64.5261H75.3799Z" fill="white"/>
<path d="M110.091 26.5505V33.1001H99.0444V40.9051H109.669V47.3551H99.0444V57.9832H110.17V64.5328H93.2966V26.5505H110.098H110.091Z" fill="white"/>
<path d="M132.409 26.5505V33.1001H121.362V40.9051H131.987V47.3551H121.362V57.9832H132.488V64.5328H115.615V26.5505H132.416H132.409Z" fill="white"/>
<path d="M135.095 26.5505H141.232L147.903 51.1812L154.502 26.5505H157.069L163.437 51.1812L170.492 26.5505H176.668L165.048 64.5261H161.827L155.73 40.9516L149.481 64.5261H146.3L135.101 26.5505H135.095Z" fill="white"/>
<path d="M179.658 64.5261V26.5505H185.413V64.5261H179.658Z" fill="white"/>
<path d="M189.325 57.0731L193.278 53.1938C194.017 55.0736 194.901 56.4619 195.924 57.352C196.947 58.2421 198.082 58.6872 199.336 58.6872C200.59 58.6872 201.507 58.2621 202.173 57.4052C202.84 56.5483 203.17 55.4124 203.17 54.0042C203.17 53.3001 203.091 52.669 202.939 52.1177C202.787 51.5664 202.517 51.035 202.134 50.5301C201.751 50.0253 201.236 49.5205 200.603 49.0223C199.963 48.5174 199.158 47.9993 198.188 47.4613C197.013 46.7904 195.957 46.1128 195.027 45.422C194.096 44.7312 193.304 43.9606 192.671 43.1037C192.031 42.2468 191.542 41.277 191.193 40.181C190.85 39.0916 190.671 37.8229 190.671 36.3815C190.671 34.94 190.896 33.4786 191.344 32.2033C191.793 30.9279 192.42 29.8186 193.225 28.882C194.03 27.9454 194.987 27.2014 196.102 26.6634C197.218 26.1253 198.425 25.8596 199.725 25.8596C201.745 25.8596 203.48 26.391 204.925 27.4472C206.37 28.5034 207.552 29.9382 208.476 31.7516L204.793 36.0825C204.206 34.9068 203.52 34.0034 202.741 33.3657C201.962 32.728 201.032 32.4092 199.963 32.4092C198.894 32.4092 198.108 32.7679 197.468 33.4919C196.828 34.216 196.512 35.0928 196.512 36.1357C196.512 36.6405 196.591 37.1121 196.762 37.5439C196.927 37.9823 197.211 38.4141 197.607 38.8525C198.003 39.2909 198.531 39.7293 199.197 40.1611C199.864 40.5995 200.682 41.1043 201.652 41.6689C202.932 42.3731 204.034 43.1237 204.971 43.9075C205.902 44.698 206.674 45.5681 207.274 46.5247C207.875 47.4812 208.324 48.5639 208.614 49.7729C208.904 50.9818 209.056 52.3568 209.056 53.9046C209.056 55.6183 208.819 57.1727 208.344 58.561C207.868 59.9559 207.215 61.145 206.37 62.1347C205.526 63.1244 204.529 63.8883 203.381 64.4264C202.233 64.9644 200.979 65.2301 199.62 65.2301C198.366 65.2301 197.198 65.0309 196.109 64.6257C195.02 64.2205 194.05 63.6625 193.192 62.9384C192.334 62.2144 191.582 61.3575 190.929 60.3678C190.275 59.378 189.748 58.2754 189.338 57.0664L189.325 57.0731Z" fill="white"/>
<path d="M219.238 26.5505V40.9051H230.285V26.5505H236V64.5261H230.285V47.8533H219.238V64.5261H213.484V26.5505H219.238Z" fill="white"/>
</g>
<defs>
<clipPath id="clip0_210_467">
<rect width="236" height="68" fill="white"/>
</clipPath>
</defs>
</svg>
