<svg width="16" height="16" viewBox="0 0 16 16" fill="none" xmlns="http://www.w3.org/2000/svg">
<path d="M13.8823 9.48774C13.8287 9.43435 13.7612 9.39722 13.6874 9.38066C13.6137 9.36409 13.5367 9.36877 13.4655 9.39415C12.5085 9.73534 11.4744 9.79799 10.4833 9.57482C9.49212 9.35165 8.58464 8.85182 7.86627 8.1334C7.1479 7.41499 6.64812 6.50748 6.42501 5.51632C6.2019 4.52516 6.2646 3.49104 6.60585 2.5341C6.63121 2.46288 6.63586 2.38593 6.61926 2.31217C6.60267 2.23841 6.56551 2.17087 6.51209 2.11737C6.45868 2.06387 6.39119 2.0266 6.31746 2.00989C6.24373 1.99318 6.16677 1.99771 6.09551 2.02296C5.23276 2.32762 4.44982 2.82292 3.80495 3.472C2.64893 4.6289 1.99969 6.19756 2 7.83304C2.00031 9.46852 2.65014 11.0369 3.8066 12.1934C4.96307 13.3499 6.53148 13.9997 8.16696 14C9.80245 14.0003 11.3711 13.3511 12.528 12.195C13.1771 11.5501 13.6724 10.767 13.977 9.9041C14.0022 9.83283 14.0066 9.7559 13.9899 9.68221C13.9731 9.60852 13.9358 9.5411 13.8823 9.48774Z" fill="black" fill-opacity="0.25"/>
</svg>
