<svg width="22" height="22" viewBox="0 0 22 22" fill="none" xmlns="http://www.w3.org/2000/svg">
    <style>
        #circle-question {
        fill: none ! important;
        }
    </style>
    <circle id="circle-question" cx="11" cy="11" r="10.5" stroke="white"/>
<path d="M11.172 13.13H9.87C9.87 12.3647 10.1733 11.6787 10.78 11.072C10.836 11.016 11.0133 10.848 11.312 10.568C11.62 10.2787 11.8207 10.078 11.914 9.966C12.0167 9.84467 12.1287 9.66267 12.25 9.42C12.3807 9.17733 12.446 8.944 12.446 8.72C12.446 8.26267 12.2873 7.908 11.97 7.656C11.6527 7.404 11.2327 7.278 10.71 7.278C9.68333 7.278 9.02533 7.73067 8.736 8.636L7.63 8.02C7.854 7.38533 8.24133 6.89533 8.792 6.55C9.352 6.19533 9.996 6.018 10.724 6.018C11.5453 6.018 12.2547 6.25133 12.852 6.718C13.4493 7.17533 13.748 7.824 13.748 8.664C13.748 9.392 13.4447 10.0593 12.838 10.666C12.7913 10.7127 12.6467 10.8527 12.404 11.086C12.1613 11.31 11.998 11.4733 11.914 11.576C11.83 11.6693 11.7133 11.814 11.564 12.01C11.4147 12.206 11.312 12.3927 11.256 12.57C11.2 12.7473 11.172 12.934 11.172 13.13ZM10.514 16.154C10.262 16.154 10.0473 16.0653 9.87 15.888C9.69267 15.7107 9.604 15.496 9.604 15.244C9.604 14.992 9.69267 14.7773 9.87 14.6C10.0473 14.4227 10.262 14.334 10.514 14.334C10.7753 14.334 10.99 14.4227 11.158 14.6C11.3353 14.7773 11.424 14.992 11.424 15.244C11.424 15.496 11.3353 15.7107 11.158 15.888C10.99 16.0653 10.7753 16.154 10.514 16.154Z" fill="white"/>
</svg>
