<svg width="32" height="32" viewBox="0 0 32 32" fill="none" xmlns="http://www.w3.org/2000/svg">
<path d="M28.1597 13.1732C28.1038 12.9961 27.9991 12.8383 27.8577 12.718C27.7161 12.5977 27.5435 12.5198 27.3597 12.4932L20.133 11.4399L16.893 4.89324C16.8007 4.73854 16.6699 4.61044 16.5134 4.52148C16.3567 4.43252 16.1798 4.38574 15.9997 4.38574C15.8195 4.38574 15.6426 4.43252 15.4859 4.52148C15.3294 4.61044 15.1985 4.73854 15.1063 4.89324L11.8663 11.4399L4.63966 12.4932C4.45582 12.5198 4.28322 12.5977 4.1417 12.718C4.00018 12.8383 3.89549 12.9961 3.83966 13.1732C3.78006 13.3497 3.77096 13.5394 3.81337 13.7208C3.85577 13.9022 3.948 14.0681 4.07966 14.2L9.33299 19.2933L8.093 26.4933C8.06157 26.6786 8.08233 26.869 8.15297 27.0433C8.22362 27.2176 8.34134 27.3688 8.49299 27.48C8.64489 27.5881 8.82401 27.6517 9.01014 27.6636C9.19629 27.6753 9.38201 27.6348 9.54633 27.5466L15.9997 24.1466L22.4663 27.5466C22.6094 27.625 22.7698 27.6664 22.933 27.6666C23.1427 27.6641 23.347 27.5992 23.5197 27.48C23.6713 27.3688 23.789 27.2176 23.8597 27.0433C23.9303 26.869 23.9511 26.6786 23.9197 26.4933L22.6663 19.2933L27.9063 14.2C28.0403 14.0696 28.135 13.9042 28.1798 13.7228C28.2246 13.5413 28.2175 13.3509 28.1597 13.1732Z" fill="#979797"/>
</svg>
