<svg width="16" height="16" viewBox="0 0 16 16" fill="none" xmlns="http://www.w3.org/2000/svg">
<path d="M8 12C7.20888 12 6.43552 11.7654 5.77772 11.3259C5.11992 10.8864 4.60723 10.2616 4.30448 9.53074C4.00173 8.79983 3.92252 7.99556 4.07686 7.21964C4.2312 6.44372 4.61216 5.73098 5.17157 5.17157C5.73098 4.61216 6.44372 4.2312 7.21964 4.07686C7.99556 3.92252 8.79983 4.00173 9.53074 4.30448C10.2616 4.60723 10.8864 5.11992 11.3259 5.77772C11.7654 6.43552 12 7.20888 12 8C12 9.06087 11.5786 10.0783 10.8284 10.8284C10.0783 11.5786 9.06087 12 8 12ZM8 5.33334C7.47259 5.33334 6.95701 5.48973 6.51848 5.78275C6.07995 6.07577 5.73816 6.49224 5.53632 6.97951C5.33449 7.46678 5.28168 8.00296 5.38457 8.52024C5.48747 9.03753 5.74144 9.51268 6.11438 9.88562C6.48732 10.2586 6.96248 10.5125 7.47976 10.6154C7.99704 10.7183 8.53322 10.6655 9.02049 10.4637C9.50776 10.2618 9.92424 9.92005 10.2173 9.48152C10.5103 9.04299 10.6667 8.52742 10.6667 8C10.6667 7.29276 10.3857 6.61448 9.88562 6.11438C9.38552 5.61429 8.70725 5.33334 8 5.33334Z" fill="white"/>
<path d="M8 9.99998C7.82318 9.99998 7.65361 9.92974 7.52859 9.80472C7.40357 9.67969 7.33333 9.51012 7.33333 9.33331V6.66665C7.33333 6.48984 7.40357 6.32027 7.52859 6.19524C7.65361 6.07022 7.82318 5.99998 8 5.99998C8.53043 5.99998 9.03914 6.21069 9.41421 6.58577C9.78928 6.96084 10 7.46955 10 7.99998C10 8.53041 9.78928 9.03912 9.41421 9.41419C9.03914 9.78927 8.53043 9.99998 8 9.99998ZM8 3.33331C7.82318 3.33331 7.65361 3.26307 7.52859 3.13805C7.40357 3.01303 7.33333 2.84346 7.33333 2.66665V1.99998C7.33333 1.82317 7.40357 1.6536 7.52859 1.52858C7.65361 1.40355 7.82318 1.33331 8 1.33331C8.17681 1.33331 8.34638 1.40355 8.4714 1.52858C8.59642 1.6536 8.66666 1.82317 8.66666 1.99998V2.66665C8.66666 2.84346 8.59642 3.01303 8.4714 3.13805C8.34638 3.26307 8.17681 3.33331 8 3.33331ZM11.7733 4.89331C11.6077 4.88581 11.4509 4.81689 11.3333 4.69998C11.2092 4.57507 11.1395 4.4061 11.1395 4.22998C11.1395 4.05386 11.2092 3.88489 11.3333 3.75998L11.8067 3.28665C11.8664 3.21686 11.94 3.16018 12.0227 3.12016C12.1054 3.08015 12.1955 3.05766 12.2873 3.05411C12.3791 3.05057 12.4707 3.06604 12.5562 3.09955C12.6418 3.13307 12.7195 3.18391 12.7844 3.24888C12.8494 3.31385 12.9002 3.39155 12.9338 3.4771C12.9673 3.56265 12.9827 3.6542 12.9792 3.74602C12.9756 3.83783 12.9532 3.92792 12.9131 4.01063C12.8731 4.09334 12.8165 4.16688 12.7467 4.22665L12.2733 4.69998C12.2079 4.76505 12.1297 4.81584 12.0436 4.84912C11.9576 4.8824 11.8655 4.89745 11.7733 4.89331ZM14 8.66665H13.3333C13.1565 8.66665 12.9869 8.59641 12.8619 8.47138C12.7369 8.34636 12.6667 8.17679 12.6667 7.99998C12.6667 7.82317 12.7369 7.6536 12.8619 7.52858C12.9869 7.40355 13.1565 7.33331 13.3333 7.33331H14C14.1768 7.33331 14.3464 7.40355 14.4714 7.52858C14.5964 7.6536 14.6667 7.82317 14.6667 7.99998C14.6667 8.17679 14.5964 8.34636 14.4714 8.47138C14.3464 8.59641 14.1768 8.66665 14 8.66665ZM12.24 12.9066C12.0651 12.9059 11.8975 12.8365 11.7733 12.7133L11.3333 12.24C11.2629 12.1133 11.2356 11.9672 11.2557 11.8236C11.2758 11.6801 11.342 11.547 11.4445 11.4445C11.547 11.342 11.6801 11.2757 11.8236 11.2557C11.9672 11.2356 12.1133 11.2629 12.24 11.3333L12.7133 11.8066C12.8375 11.9316 12.9072 12.1005 12.9072 12.2766C12.9072 12.4528 12.8375 12.6217 12.7133 12.7466C12.5823 12.8593 12.4125 12.9167 12.24 12.9066ZM8 14.6666C7.82318 14.6666 7.65361 14.5964 7.52859 14.4714C7.40357 14.3464 7.33333 14.1768 7.33333 14V13.3333C7.33333 13.1565 7.40357 12.9869 7.52859 12.8619C7.65361 12.7369 7.82318 12.6666 8 12.6666C8.17681 12.6666 8.34638 12.7369 8.4714 12.8619C8.59642 12.9869 8.66666 13.1565 8.66666 13.3333V14C8.66666 14.1768 8.59642 14.3464 8.4714 14.4714C8.34638 14.5964 8.17681 14.6666 8 14.6666ZM3.75999 12.9066C3.67226 12.9072 3.58528 12.8903 3.50406 12.8572C3.42283 12.824 3.34895 12.7751 3.28666 12.7133C3.16249 12.5884 3.0928 12.4194 3.0928 12.2433C3.0928 12.0672 3.16249 11.8982 3.28666 11.7733L3.75999 11.3333C3.88753 11.2241 4.05158 11.167 4.21936 11.1735C4.38715 11.18 4.54631 11.2495 4.66504 11.3683C4.78377 11.487 4.85332 11.6462 4.8598 11.8139C4.86628 11.9817 4.80921 12.1458 4.7 12.2733L4.22666 12.7466C4.09729 12.8577 3.93029 12.9149 3.75999 12.9066ZM2.66666 8.66665H1.99999C1.82318 8.66665 1.65361 8.59641 1.52859 8.47138C1.40357 8.34636 1.33333 8.17679 1.33333 7.99998C1.33333 7.82317 1.40357 7.6536 1.52859 7.52858C1.65361 7.40355 1.82318 7.33331 1.99999 7.33331H2.66666C2.84347 7.33331 3.01304 7.40355 3.13807 7.52858C3.26309 7.6536 3.33333 7.82317 3.33333 7.99998C3.33333 8.17679 3.26309 8.34636 3.13807 8.47138C3.01304 8.59641 2.84347 8.66665 2.66666 8.66665ZM4.22666 4.89331C4.05177 4.89258 3.88417 4.82314 3.75999 4.69998L3.28666 4.22665C3.17744 4.09911 3.12037 3.93506 3.12685 3.76728C3.13333 3.59949 3.20289 3.44033 3.32162 3.3216C3.44035 3.20287 3.59951 3.13332 3.76729 3.12684C3.93508 3.12036 4.09913 3.17743 4.22666 3.28665L4.7 3.75998C4.82416 3.88489 4.89386 4.05386 4.89386 4.22998C4.89386 4.4061 4.82416 4.57507 4.7 4.69998C4.6377 4.76177 4.56382 4.81065 4.4826 4.84383C4.40137 4.877 4.3144 4.89382 4.22666 4.89331Z" fill="white"/>
</svg>
